<?xml version="1.0" encoding="utf-8"?>
<!-- Generator: Adobe Illustrator 21.0.2, SVG Export Plug-In . SVG Version: 6.00 Build 0)  -->
<svg version="1.1" id="Layer_1" xmlns="http://www.w3.org/2000/svg" xmlns:xlink="http://www.w3.org/1999/xlink" x="0px" y="0px"
	 viewBox="0 0 768 512.2" style="enable-background:new 0 0 768 512.2;" xml:space="preserve">
<style type="text/css">
	.st0{fill:#1A4875;}
	.st1{fill:#C6D6E0;}
	.st2{fill:#FFFFFF;}
</style>
<g id="_x23_ffffffff">
</g>
<path class="st0" d="M409.9,3.5c4.6-2.7,10.1-3.6,15.4-3.5c105.3,0,210.7,0,316,0c10-0.2,19.8,5.8,24,15c4.6,9,3,20.2-2.9,28.1
	c-31.8,41.8-64,83.3-95.9,125c-0.9,1.1-1,2.5-1,3.8c-0.1,30.4,0.1,60.7-0.1,91.1c-0.3,7-3.7,13.6-8.8,18.3c-3.2,2.9-7.1,5-10.8,7.2
	c-33.7,20.3-67.3,40.7-100.9,61.1c-11,6.4-21.7,13.3-32.8,19.5c-0.3-59-0.1-118.1-0.1-177.1c-25.8,23.8-51.8,47.4-77.6,71.2
	c16.2,17,32.7,33.7,49,50.6c1.6,1.3,1.5,3.3,1.5,5.1c-0.2,22.4,0,44.8-0.1,67.2c-5.1-4.4-9.6-9.6-14.3-14.4
	c-24.4-25-48.8-49.9-73.2-74.9c-20.1,18.3-39.9,36.8-60,55.1c-9.9,9.8-27.3,9.9-37.1,0.1c-16.3-14.7-32.8-29.2-49.2-43.9
	c-3.3-2.7-6.1-6-9.8-8.1c-45.8,46.8-91.7,93.6-137.5,140.4c-6.4,6.8-13.3,13.2-19.5,20.2c142.6-0.1,285.2-0.1,427.7,0
	c-0.1-15.9-0.1-31.8,0-47.7c-0.2-1.8,0.6-3.3,2.3-4c16.4-9.5,32.3-19.9,48.8-29.2c0.2,27-0.3,54,0.3,80.9c8.3-0.1,16.7-0.1,25,0
	c0.6-31.8,0-63.7,0.3-95.5c-0.2-1.4,1.2-2,2.1-2.7c16.5-9.7,32.6-20,49.2-29.5c-0.1,51,0,102,0,153c0.2,10.2-6.3,20.2-15.8,24
	c-5.7,2.5-11.9,2-18,2c-188.3-0.1-376.7-0.1-565,0c-6.7-0.1-13.4,0.4-20-0.5C9.2,509.7-0.2,498.2,0,486C0,350,0,214,0,78
	c-0.1-8.4,3.8-16.8,10.7-21.7c4.7-3.6,10.7-5.2,16.6-5.1c79.4,0,158.7,0,238.1,0c47.7-0.1,95.4,0.2,143.1-0.1
	c-4-5.6-9-10.6-10.8-17.4C394.2,22.4,399.5,9.1,409.9,3.5"/>
<path class="st1" d="M473.1,51.4c2.3,3.6,5,6.9,7.7,10.2C504.9,92.8,529,124,553.4,155c3.1,4,6.5,7.9,8.3,12.7
	c2.2,5.5,1.3,11.6,1.5,17.3c0.1,33.8-0.3,67.5,0.3,101.3c17.1-9.8,34-20.2,50.9-30.3c0.1-30,0-60,0-89.9c-0.5-8.7,2.1-17.6,7.9-24.1
	c19.5-24.9,38.6-50.1,57.9-75.1c3.8-5.1,8.1-10,11.5-15.4C618.8,51.3,545.9,51.3,473.1,51.4"/>
<path class="st2" d="M94.1,102.5c7.4,7.2,15.2,14,23,20.7c67.3,59.9,134.8,119.6,202.1,179.5c55.3-50.5,110.7-100.8,166.3-151
	c-1.3-2-2.6-4-4-5.9c-11.2-14.4-22.3-29-33.5-43.5C330.1,102.5,212.1,102.4,94.1,102.5"/>
<path class="st2" d="M51.4,131.7c-0.4,13.1-0.1,26.2-0.2,39.3c-0.1,60,0,120,0,180c0.1,23.5-0.3,47,0.2,70.5
	C63,410.7,73.8,398.9,85,387.8c39.6-40.3,79.3-80.5,118.8-120.8c-19.8-18.4-40.4-35.9-60.5-53.8C112.6,186,82,158.8,51.4,131.7z"/>
</svg>
